<?xml version="1.0" encoding="UTF-8"?><svg version="1.1" viewBox="0 0 24 24" xmlns="http://www.w3.org/2000/svg" xmlns:xlink="http://www.w3.org/1999/xlink" width="128" height="128"><!--Generated by IJSVG (https://github.com/iconjar/IJSVG)--><g fill="#000" fill-rule="evenodd"><path d="M6.5,9c0,-0.27614 0.22386,-0.5 0.5,-0.5h10c0.2761,0 0.5,0.22386 0.5,0.5v3c0,0.0776 -0.0181,0.1542 -0.0528,0.2236l-0.8882,1.7764l0.8882,1.7764c0.0347,0.0694 0.0528,0.146 0.0528,0.2236v6c0,0.8284 -0.6716,1.5 -1.5,1.5h-8c-0.82843,0 -1.5,-0.6716 -1.5,-1.5v-6c0,-0.0776 0.01807,-0.1542 0.05279,-0.2236l0.88819,-1.7764l-0.88819,-1.7764c-0.03472,-0.0694 -0.05279,-0.146 -0.05279,-0.2236v-3Zm1,0.5v2.382l0.94721,1.8944c0.07039,0.1408 0.07039,0.3064 0,0.4472l-0.94721,1.8944v5.882c0,0.2761 0.22386,0.5 0.5,0.5h8c0.2761,0 0.5,-0.2239 0.5,-0.5v-5.882l-0.9472,-1.8944c-0.0704,-0.1408 -0.0704,-0.3064 0,-0.4472l0.9472,-1.8944v-2.382h-9Z" style="stroke: currentColor; stroke-width: 1px; stroke-linecap: round;"/><path d="M9.5,1c0,-0.276142 0.22386,-0.5 0.5,-0.5h4c0.2761,0 0.5,0.223858 0.5,0.5v3c0,0.27614 -0.2239,0.5 -0.5,0.5h-4c-0.27614,0 -0.5,-0.22386 -0.5,-0.5v-3Zm1,0.5v2h3v-2h-3Z" style="stroke: currentColor; stroke-width: 1px; stroke-linecap: round;"/><path d="M6.5,8c0,-2.48528 2.01472,-4.5 4.5,-4.5h2c2.4853,0 4.5,2.01472 4.5,4.5v1c0,0.27614 -0.2239,0.5 -0.5,0.5h-10c-0.27614,0 -0.5,-0.22386 -0.5,-0.5v-1Zm4.5,-3.5c-1.933,0 -3.5,1.567 -3.5,3.5v0.5h9v-0.5c0,-1.933 -1.567,-3.5 -3.5,-3.5h-2Z" style="stroke: currentColor; stroke-width: 1px; stroke-linecap: round;"/><path d="M10.5,14c0,-0.2761 0.2239,-0.5 0.5,-0.5h2c0.2761,0 0.5,0.2239 0.5,0.5c0,0.2761 -0.2239,0.5 -0.5,0.5h-2c-0.2761,0 -0.5,-0.2239 -0.5,-0.5Z" style="stroke: currentColor; stroke-width: 1px; stroke-linecap: round;"/><path d="M9.5,17c0,-0.2761 0.22386,-0.5 0.5,-0.5h4c0.2761,0 0.5,0.2239 0.5,0.5c0,0.2761 -0.2239,0.5 -0.5,0.5h-4c-0.27614,0 -0.5,-0.2239 -0.5,-0.5Z" style="stroke: currentColor; stroke-width: 1px; stroke-linecap: round;"/><path d="M9.5,20c0,-0.2761 0.22386,-0.5 0.5,-0.5h4c0.2761,0 0.5,0.2239 0.5,0.5c0,0.2761 -0.2239,0.5 -0.5,0.5h-4c-0.27614,0 -0.5,-0.2239 -0.5,-0.5Z" style="stroke: currentColor; stroke-width: 1px; stroke-linecap: round;"/></g></svg>